<svg width="1254" height="1254" viewBox="0 0 1254 1254" fill="none" xmlns="http://www.w3.org/2000/svg">
<path d="M1011.99 241.371C1014.15 241.59 1016.97 242.204 1019.57 243.284C1021.93 244.269 1025.27 246.11 1026.87 249.458H1026.86C1030.77 257.637 1026.58 265.106 1022.44 270.078C1020.28 272.682 1017.79 275.04 1015.56 277.037C1013.19 279.162 1011.4 280.648 1009.97 282.025C1002.94 288.857 996.004 295.796 989.189 302.838L989.185 302.844L989.179 302.849C967.076 325.548 946.364 349.555 927.142 374.741L927.143 374.742C863.021 459.914 814.984 556.074 785.389 658.496L785.385 658.508C779.214 679.664 775.517 697.698 770.511 718.406C807.913 721.024 868.006 729.707 921.971 748.02C950.443 757.681 977.466 770.108 998.581 785.924C1019.37 801.494 1034.8 820.636 1039.79 843.97L1040.02 845.084L1040.03 845.102L1040.03 845.12C1043.58 863.68 1039.6 882.883 1028.96 898.508C1017.08 916.11 997.181 930.287 976.169 934.959C972.732 935.724 968.078 935.732 964.101 934.345C962.073 933.637 959.891 932.45 958.236 930.474C956.487 928.385 955.598 925.727 955.804 922.742C956.059 919.027 957.975 915.852 960.034 913.359C962.136 910.815 964.821 908.467 967.439 906.385C970.045 904.313 972.891 902.272 975.206 900.544C977.66 898.712 979.489 897.251 980.618 896.058L980.619 896.057C982.704 893.855 985.137 891.797 987.032 890.078C989.05 888.248 990.733 886.574 992.06 884.683L992.188 884.499L992.333 884.328C1003.16 871.517 1004.62 859.204 1000.85 848.003C996.955 836.423 987.221 825.395 974.414 816.313H974.413C932.043 786.258 876.011 771.847 824.453 763.036H824.452C787.309 757.07 749.851 753.198 712.271 751.45L712.249 751.449L712.229 751.448C688.743 750.158 664.456 749.712 640.654 747.247V747.246C638.737 747.048 634.634 746.775 630.861 746.161C628.935 745.848 626.884 745.418 625.013 744.792C623.24 744.199 621.114 743.268 619.487 741.672L619.483 741.668C618.512 740.712 617.652 739.519 617.008 738.274C616.382 737.065 615.779 735.461 615.704 733.693C615.556 730.208 617.215 727.794 618.827 726.146C621.115 723.804 624.637 722.334 628.103 721.289C631.767 720.184 636.225 719.315 641.125 718.619C650.941 717.225 663.08 716.453 675.365 716.051C697.037 715.341 719.576 715.769 731.489 716.082C763.231 559.95 836.043 415.195 942.303 296.697C876.364 315.988 812.813 342.711 752.877 376.359L752.838 376.381C658.411 428.306 575.412 498.717 508.79 583.414C498.6 596.669 488.867 610.271 479.609 624.191L479.603 624.201C477.378 627.53 475.057 631.264 472.587 635.237C470.134 639.184 467.546 643.348 464.851 647.416C459.509 655.479 453.497 663.566 446.801 669.2C437.958 676.642 427.353 681.864 416.715 686.328C405.718 690.943 395.399 694.495 385.296 699.121C359.302 711.023 328.629 724.355 300.881 741.266C273.11 758.191 248.888 778.346 235.452 803.524C229.643 814.41 228.22 829.174 232.544 840.083L232.958 841.1C241.837 862.374 262.351 878.01 287.043 889.68C312.015 901.482 340.38 908.817 362.926 913.886L363.081 913.921L363.234 913.966C369.364 915.761 376.425 916.732 384.071 918.017C391.466 919.259 399.355 920.793 406.114 923.827C409.967 925.555 413.23 927.94 414.648 931.374C416.24 935.227 414.917 938.792 412.992 941.226C411.147 943.557 408.477 945.311 405.837 946.518C403.141 947.75 400.075 948.597 397.084 948.86L397.085 948.861C344.034 953.547 285.996 937.73 241.809 908.208L239.715 906.792C217.078 891.292 196.691 866.404 192.412 837.754L192.407 837.723L192.403 837.691C186.352 793.348 214.649 757.166 250.388 729.348C286.292 701.401 331.127 680.75 361.271 667.513L361.275 667.512C370.995 663.253 380.784 659.147 390.639 655.208C410.586 647.111 418.024 643.68 423.605 638.294C426.392 635.605 428.84 632.292 432.119 627.224C433.756 624.694 435.549 621.807 437.685 618.391C439.811 614.989 442.25 611.104 445.137 606.645C451.149 597.326 457.423 588.178 463.95 579.212C572.006 429.745 731.903 324.416 906.141 268.229C935.344 258.813 979.928 246.351 1010.69 241.409L1011.34 241.306L1011.99 241.371Z" fill="black" stroke="black" stroke-width="10"/>
<path d="M736.599 795C744.541 795.657 745.28 804.083 747.097 810.168C752.997 829.898 757.708 844.409 778.752 851.681C785.263 853.933 800.656 858.175 804 863.891C802.151 872.277 776.115 874.569 764.548 884.454C747.515 899.005 749.291 924.901 740.602 934C739.356 933.96 736.703 933.631 735.988 932.902C731.374 928.188 728.151 912.113 725.643 905.676C719.984 888.174 710.314 880.638 693.224 874.818C687.541 872.886 674.993 869.936 673 863.594C676.955 855.986 701.158 853.95 712.741 843.92C729.011 829.834 728.167 804.204 736.599 795Z" fill="black"/>
<path d="M477.166 795.333C501.05 792.379 522.791 809.383 525.681 833.282C528.57 857.172 511.509 878.864 487.61 881.694C463.797 884.514 442.198 867.529 439.319 843.719C436.441 819.918 453.369 798.27 477.166 795.333Z" fill="black"/>
</svg>
